<svg width="1024" height="1024" viewBox="0 0 1024 1024" fill="none" xmlns="http://www.w3.org/2000/svg">
  <defs>
    <linearGradient id="bg" x1="124" y1="120" x2="900" y2="924" gradientUnits="userSpaceOnUse">
      <stop stop-color="#F8F5EF"/>
      <stop offset="1" stop-color="#E7ECF5"/>
    </linearGradient>
    <linearGradient id="panel" x1="300" y1="232" x2="720" y2="804" gradientUnits="userSpaceOnUse">
      <stop stop-color="#FFFFFF"/>
      <stop offset="1" stop-color="#F3F6FC"/>
    </linearGradient>
    <linearGradient id="accent" x1="370" y1="298" x2="654" y2="430" gradientUnits="userSpaceOnUse">
      <stop stop-color="#B23A3F"/>
      <stop offset="1" stop-color="#8E252A"/>
    </linearGradient>
    <filter id="shadow" x="116" y="126" width="792" height="792" filterUnits="userSpaceOnUse" color-interpolation-filters="sRGB">
      <feFlood flood-opacity="0" result="BackgroundImageFix"/>
      <feColorMatrix in="SourceAlpha" type="matrix" values="0 0 0 0 0 0 0 0 0 0 0 0 0 0 0 0 0 0 127 0" result="hardAlpha"/>
      <feOffset dy="16"/>
      <feGaussianBlur stdDeviation="16"/>
      <feColorMatrix type="matrix" values="0 0 0 0 0.0901961 0 0 0 0 0.12549 0 0 0 0 0.2 0 0 0 0.2 0"/>
      <feBlend mode="normal" in2="BackgroundImageFix" result="effect1_dropShadow_1_2"/>
      <feBlend mode="normal" in="SourceGraphic" in2="effect1_dropShadow_1_2" result="shape"/>
    </filter>
  </defs>

  <rect x="84" y="84" width="856" height="856" rx="220" fill="url(#bg)"/>
  <rect x="84" y="84" width="856" height="856" rx="220" stroke="#24324C" stroke-opacity="0.16" stroke-width="14"/>

  <g filter="url(#shadow)">
    <rect x="180" y="178" width="664" height="664" rx="168" fill="url(#panel)"/>
    <rect x="180" y="178" width="664" height="664" rx="168" stroke="#24324C" stroke-opacity="0.12" stroke-width="6"/>
  </g>

  <rect x="330" y="270" width="364" height="74" rx="37" fill="url(#accent)"/>

  <path d="M372 390H456V690H372V390Z" fill="#1F4E8C"/>
  <path d="M568 390H652V690H568V390Z" fill="#1F4E8C"/>
  <path d="M438 510H586V586H438V510Z" fill="#1F4E8C"/>

  <rect x="338" y="736" width="348" height="22" rx="11" fill="#24324C" fill-opacity="0.28"/>
  <rect x="366" y="774" width="292" height="18" rx="9" fill="#24324C" fill-opacity="0.22"/>
  <rect x="398" y="806" width="228" height="14" rx="7" fill="#24324C" fill-opacity="0.16"/>

  <circle cx="708" cy="512" r="20" fill="#B06A1D"/>
</svg>
